# xmcd CD database file
# Copyright (C) 1997 Ti Kan
#
# Track frame offsets:
#  150
#  15647
#  29795
#  56990
#  76057
#  91850
#  110837
#  133305
#  152737
#  171145
#  184507
#  194847
#  208087
#  223072
#  241042
#  254617
#
# Disc length: 3758 seconds
#
# Revision: 2
# Processed by: cddbd v1.4PL0 Copyright (c) Steve Scherf et al.
# Submitted via: Gronk 1.4
#
DISCID=ed0eac10
DTITLE=David Rodriguez - The True Cross
DYEAR=1900
DGENRE=country
TTITLE0=Weary Eyes
TTITLE1=Laredo
TTITLE2=Hurricane
TTITLE3=The Third World
TTITLE4=The Rifle and the Song
TTITLE5=Ballad of the Western Colonies
TTITLE6=The True Cross
TTITLE7=Blanca Smiles
TTITLE8=Ballad of the Snow Leopard
TTITLE9=The Professional Librarian
TTITLE10=Stealth Not Boldness (Is the Way of the Hunter)
TTITLE11=One Way Ticket
TTITLE12=Crazy Love (What Jill Missed)
TTITLE13=The Girl With Three First Names
TTITLE14=Ballad of Wanda Jewel
TTITLE15=Deportee
EXTD=
EXTT0=
EXTT1=
EXTT2=
EXTT3=
EXTT4=
EXTT5=
EXTT6=
EXTT7=
EXTT8=
EXTT9=
EXTT10=
EXTT11=
EXTT12=
EXTT13=
EXTT14=
EXTT15=
PLAYORDER=
